<svg xmlns="http://www.w3.org/2000/svg" xmlns:xlink="http://www.w3.org/1999/xlink" width="1366" height="670.894" viewBox="0 0 1366 670.894">
  <defs>
    <clipPath id="clip-path">
      <rect id="Rechteck_5" data-name="Rechteck 5" width="1366" height="670.894"/>
    </clipPath>
  </defs>
  <g id="AI-Illu" transform="translate(-206 -151)">
    <path id="Pfad_3" data-name="Pfad 3" d="M306.554,331.451a6.161,6.161,0,1,0-6.154-6.168,6.155,6.155,0,0,0,6.154,6.168Z" transform="translate(41.007 73.034)" fill="#99a88f"/>
    <path id="Pfad_4" data-name="Pfad 4" d="M274.474,421.211a6.161,6.161,0,1,0-6.154-6.154,6.152,6.152,0,0,0,6.154,6.154Z" transform="translate(27.071 112.025)" fill="#99a88f"/>
    <path id="Pfad_5" data-name="Pfad 5" d="M223.864,429.8a6.154,6.154,0,1,0-6.154-6.154,6.152,6.152,0,0,0,6.154,6.154Z" transform="translate(5.087 115.761)" fill="#99a88f"/>
    <path id="Pfad_6" data-name="Pfad 6" d="M260.5,451.387a6.154,6.154,0,1,0-6.154-6.154,6.152,6.152,0,0,0,6.154,6.154Z" transform="translate(21.003 125.14)" fill="#99a88f"/>
    <path id="Pfad_7" data-name="Pfad 7" d="M347.628,378.991a6.161,6.161,0,1,0-6.168-6.168,6.155,6.155,0,0,0,6.168,6.168Z" transform="translate(58.843 93.685)" fill="#99a88f"/>
    <path id="Pfad_8" data-name="Pfad 8" d="M271.894,494.507a6.154,6.154,0,1,0-6.154-6.154,6.152,6.152,0,0,0,6.154,6.154Z" transform="translate(25.951 143.87)" fill="#99a88f"/>
    <path id="Pfad_9" data-name="Pfad 9" d="M379.894,551.827a6.154,6.154,0,1,0-6.154-6.154,6.152,6.152,0,0,0,6.154,6.154Z" transform="translate(72.865 168.77)" fill="#99a88f"/>
    <path id="Pfad_10" data-name="Pfad 10" d="M472.358,536.727a6.154,6.154,0,1,0-6.168-6.154,6.152,6.152,0,0,0,6.168,6.154Z" transform="translate(113.024 162.211)" fill="#99a88f"/>
    <path id="Pfad_11" data-name="Pfad 11" d="M450.044,456.4a6.154,6.154,0,1,0-6.154-6.154,6.152,6.152,0,0,0,6.154,6.154Z" transform="translate(103.337 127.316)" fill="#99a88f"/>
    <path id="Pfad_12" data-name="Pfad 12" d="M465.784,428.941a6.161,6.161,0,1,0-6.154-6.168,6.155,6.155,0,0,0,6.154,6.168Z" transform="translate(110.175 115.383)" fill="#99a88f"/>
    <path id="Pfad_13" data-name="Pfad 13" d="M479.244,484.187a6.154,6.154,0,1,0-6.154-6.154,6.165,6.165,0,0,0,6.154,6.154Z" transform="translate(116.022 139.388)" fill="#99a88f"/>
    <path id="Pfad_14" data-name="Pfad 14" d="M276.809,557.308a8.219,8.219,0,1,0-8.219-8.219,8.218,8.218,0,0,0,8.219,8.219Z" transform="translate(27.189 169.356)" fill="#99a88f"/>
    <path id="Pfad_15" data-name="Pfad 15" d="M425.259,553.078a8.219,8.219,0,1,0-8.219-8.219,8.218,8.218,0,0,0,8.219,8.219Z" transform="translate(91.674 167.519)" fill="#99a88f"/>
    <path id="Pfad_16" data-name="Pfad 16" d="M472.139,602.8a8.219,8.219,0,1,0-8.219-8.219,8.218,8.218,0,0,0,8.219,8.219Z" transform="translate(112.038 189.117)" fill="#99a88f"/>
    <path id="Pfad_17" data-name="Pfad 17" d="M312.909,591.378a8.219,8.219,0,1,0-8.219-8.219,8.218,8.218,0,0,0,8.219,8.219Z" transform="translate(42.87 184.156)" fill="#99a88f"/>
    <path id="Pfad_18" data-name="Pfad 18" d="M348.548,460.7a6.154,6.154,0,1,0-6.168-6.154,6.152,6.152,0,0,0,6.168,6.154Z" transform="translate(59.242 129.184)" fill="#99a88f"/>
    <path id="Pfad_19" data-name="Pfad 19" d="M585.684,617.312a6.161,6.161,0,1,0-6.154-6.168,6.168,6.168,0,0,0,6.154,6.168Z" transform="translate(162.258 197.209)" fill="#99a88f"/>
    <path id="Pfad_20" data-name="Pfad 20" d="M530.2,546.747a6.154,6.154,0,1,0-6.154-6.154,6.152,6.152,0,0,0,6.154,6.154Z" transform="translate(138.158 166.563)" fill="#99a88f"/>
    <path id="Pfad_21" data-name="Pfad 21" d="M505.209,587.758a8.219,8.219,0,1,0-8.219-8.219,8.218,8.218,0,0,0,8.219,8.219Z" transform="translate(126.404 182.584)" fill="#99a88f"/>
    <path id="Pfad_22" data-name="Pfad 22" d="M628.294,598.711a6.161,6.161,0,1,0-6.154-6.168,6.155,6.155,0,0,0,6.154,6.168Z" transform="translate(180.768 189.13)" fill="#99a88f"/>
    <path id="Pfad_23" data-name="Pfad 23" d="M664.224,551.827a6.154,6.154,0,1,0-6.153-6.154,6.152,6.152,0,0,0,6.153,6.154Z" transform="translate(196.375 168.77)" fill="#99a88f"/>
    <path id="Pfad_24" data-name="Pfad 24" d="M607.5,599.431a6.161,6.161,0,1,0-6.153-6.153,6.152,6.152,0,0,0,6.153,6.153Z" transform="translate(171.737 189.443)" fill="#99a88f"/>
    <path id="Pfad_25" data-name="Pfad 25" d="M635.784,559.631a6.161,6.161,0,1,0-6.154-6.154,6.152,6.152,0,0,0,6.154,6.154Z" transform="translate(184.021 172.154)" fill="#99a88f"/>
    <path id="Pfad_26" data-name="Pfad 26" d="M700.554,510.037a6.154,6.154,0,1,0-6.154-6.154,6.152,6.152,0,0,0,6.154,6.154Z" transform="translate(212.157 150.617)" fill="#99a88f"/>
    <path id="Pfad_27" data-name="Pfad 27" d="M776.364,406.067a6.154,6.154,0,1,0-6.154-6.154,6.152,6.152,0,0,0,6.154,6.154Z" transform="translate(245.088 105.453)" fill="#99a88f"/>
    <path id="Pfad_28" data-name="Pfad 28" d="M760.614,401.237a6.154,6.154,0,1,0-6.154-6.154,6.152,6.152,0,0,0,6.154,6.154Z" transform="translate(238.247 103.355)" fill="#99a88f"/>
    <path id="Pfad_29" data-name="Pfad 29" d="M734.808,616.587a6.154,6.154,0,1,0-6.168-6.153,6.152,6.152,0,0,0,6.168,6.153Z" transform="translate(227.03 196.901)" fill="#99a88f"/>
    <path id="Pfad_30" data-name="Pfad 30" d="M788.954,580.057A6.154,6.154,0,1,0,782.8,573.9a6.165,6.165,0,0,0,6.154,6.154Z" transform="translate(250.557 181.033)" fill="#99a88f"/>
    <path id="Pfad_31" data-name="Pfad 31" d="M837.264,591.267a6.154,6.154,0,1,0-6.154-6.154,6.152,6.152,0,0,0,6.154,6.154Z" transform="translate(271.543 185.902)" fill="#99a88f"/>
    <path id="Pfad_32" data-name="Pfad 32" d="M742.584,533.157A6.154,6.154,0,1,0,736.43,527a6.152,6.152,0,0,0,6.154,6.154Z" transform="translate(230.414 160.66)" fill="#99a88f"/>
    <path id="Pfad_33" data-name="Pfad 33" d="M795.394,323.857a6.154,6.154,0,1,0-6.153-6.154,6.152,6.152,0,0,0,6.153,6.154Z" transform="translate(253.355 69.742)" fill="#99a88f"/>
    <path id="Pfad_34" data-name="Pfad 34" d="M835.029,420.658a8.219,8.219,0,1,0-8.219-8.219,8.218,8.218,0,0,0,8.219,8.219Z" transform="translate(269.675 109.997)" fill="#99a88f"/>
    <path id="Pfad_35" data-name="Pfad 35" d="M830.139,542.988a8.219,8.219,0,1,0-8.219-8.219,8.218,8.218,0,0,0,8.219,8.219Z" transform="translate(267.551 163.136)" fill="#99a88f"/>
    <path id="Pfad_36" data-name="Pfad 36" d="M727.944,492.781a6.161,6.161,0,1,0-6.153-6.168,6.155,6.155,0,0,0,6.153,6.168Z" transform="translate(224.055 143.115)" fill="#99a88f"/>
    <path id="Pfad_37" data-name="Pfad 37" d="M739.814,550.287a6.154,6.154,0,1,0-6.154-6.154,6.152,6.152,0,0,0,6.154,6.154Z" transform="translate(229.211 168.101)" fill="#99a88f"/>
    <path id="Pfad_38" data-name="Pfad 38" d="M540.583,552.257a6.154,6.154,0,1,0-6.153-6.153,6.152,6.152,0,0,0,6.153,6.153Z" transform="translate(142.667 168.957)" fill="#99a88f"/>
    <path id="Pfad_39" data-name="Pfad 39" d="M660.789,512.728a8.219,8.219,0,1,0-8.219-8.219,8.218,8.218,0,0,0,8.219,8.219Z" transform="translate(193.986 149.991)" fill="#99a88f"/>
    <path id="Pfad_40" data-name="Pfad 40" d="M608.849,565.678a8.219,8.219,0,1,0-8.219-8.219,8.218,8.218,0,0,0,8.219,8.219Z" transform="translate(171.424 172.992)" fill="#99a88f"/>
    <path id="Pfad_41" data-name="Pfad 41" d="M765.539,437.338a8.219,8.219,0,1,0-8.219-8.219,8.218,8.218,0,0,0,8.219,8.219Z" transform="translate(239.489 117.242)" fill="#99a88f"/>
    <path id="Pfad_42" data-name="Pfad 42" d="M583.969,575.588a8.219,8.219,0,1,0-8.219-8.219,8.218,8.218,0,0,0,8.219,8.219Z" transform="translate(160.616 177.297)" fill="#99a88f"/>
    <path id="Pfad_43" data-name="Pfad 43" d="M577.519,478.278a8.219,8.219,0,1,0-8.219-8.219,8.218,8.218,0,0,0,8.219,8.219Z" transform="translate(157.814 135.026)" fill="#99a88f"/>
    <path id="Pfad_44" data-name="Pfad 44" d="M645.079,412.328a8.219,8.219,0,1,0-8.219-8.219,8.218,8.218,0,0,0,8.219,8.219Z" transform="translate(187.162 106.378)" fill="#99a88f"/>
    <path id="Pfad_45" data-name="Pfad 45" d="M888.768,563.6a6.161,6.161,0,1,0-6.168-6.154,6.152,6.152,0,0,0,6.168,6.154Z" transform="translate(293.909 173.878)" fill="#99a88f"/>
    <path id="Pfad_46" data-name="Pfad 46" d="M934.934,546.457a6.154,6.154,0,1,0-6.154-6.154,6.165,6.165,0,0,0,6.154,6.154Z" transform="translate(313.97 166.437)" fill="#99a88f"/>
    <path id="Pfad_47" data-name="Pfad 47" d="M966.824,526.836a6.168,6.168,0,1,0-6.154-6.168,6.155,6.155,0,0,0,6.154,6.168Z" transform="translate(327.822 157.901)" fill="#99a88f"/>
    <path id="Pfad_48" data-name="Pfad 48" d="M962.524,509.327a6.154,6.154,0,1,0-6.154-6.154,6.165,6.165,0,0,0,6.154,6.154Z" transform="translate(325.954 150.308)" fill="#99a88f"/>
    <path id="Pfad_49" data-name="Pfad 49" d="M973.264,417.977a6.154,6.154,0,1,0-6.154-6.154,6.152,6.152,0,0,0,6.154,6.154Z" transform="translate(330.62 110.627)" fill="#99a88f"/>
    <path id="Pfad_50" data-name="Pfad 50" d="M870.543,523.247a6.154,6.154,0,1,0-6.153-6.154,6.152,6.152,0,0,0,6.153,6.154Z" transform="translate(285.999 156.355)" fill="#99a88f"/>
    <path id="Pfad_51" data-name="Pfad 51" d="M888.768,450.267a6.154,6.154,0,1,0-6.168-6.154,6.152,6.152,0,0,0,6.168,6.154Z" transform="translate(293.909 124.653)" fill="#99a88f"/>
    <path id="Pfad_52" data-name="Pfad 52" d="M895.108,433.951a6.161,6.161,0,1,0-6.168-6.168,6.155,6.155,0,0,0,6.168,6.168Z" transform="translate(296.664 117.559)" fill="#99a88f"/>
    <path id="Pfad_53" data-name="Pfad 53" d="M886.518,425.357a6.154,6.154,0,1,0-6.168-6.154,6.152,6.152,0,0,0,6.168,6.154Z" transform="translate(292.932 113.832)" fill="#99a88f"/>
    <path id="Pfad_54" data-name="Pfad 54" d="M963.149,457.238a8.219,8.219,0,1,0-8.219-8.219,8.218,8.218,0,0,0,8.219,8.219Z" transform="translate(325.329 125.887)" fill="#99a88f"/>
    <path id="Pfad_55" data-name="Pfad 55" d="M1007.659,524.5a8.219,8.219,0,1,0-8.219-8.219,8.218,8.218,0,0,0,8.219,8.219Z" transform="translate(344.664 155.104)" fill="#99a88f"/>
    <path id="Pfad_56" data-name="Pfad 56" d="M1099.149,561.148a8.219,8.219,0,1,0-8.219-8.219,8.218,8.218,0,0,0,8.219,8.219Z" transform="translate(384.406 171.024)" fill="#99a88f"/>
    <path id="Pfad_57" data-name="Pfad 57" d="M829.394,511.481a6.161,6.161,0,1,0-6.153-6.168,6.155,6.155,0,0,0,6.153,6.168Z" transform="translate(268.124 151.238)" fill="#99a88f"/>
    <path id="Pfad_58" data-name="Pfad 58" d="M926.259,551.288a8.219,8.219,0,1,0-8.219-8.219,8.218,8.218,0,0,0,8.219,8.219Z" transform="translate(309.304 166.741)" fill="#99a88f"/>
    <path id="Pfad_59" data-name="Pfad 59" d="M978.274,478.041a6.161,6.161,0,1,0-6.154-6.168,6.168,6.168,0,0,0,6.154,6.168Z" transform="translate(332.796 136.712)" fill="#99a88f"/>
    <path id="Pfad_60" data-name="Pfad 60" d="M992.584,478.041a6.161,6.161,0,1,0-6.154-6.168,6.168,6.168,0,0,0,6.154,6.168Z" transform="translate(339.012 136.712)" fill="#99a88f"/>
    <path id="Pfad_61" data-name="Pfad 61" d="M1012.048,459.567a6.154,6.154,0,1,0-6.168-6.154,6.152,6.152,0,0,0,6.168,6.154Z" transform="translate(347.461 128.693)" fill="#99a88f"/>
    <path id="Pfad_62" data-name="Pfad 62" d="M1046.414,394.871a6.161,6.161,0,1,0-6.154-6.154,6.152,6.152,0,0,0,6.154,6.154Z" transform="translate(362.396 100.583)" fill="#99a88f"/>
    <path id="Pfad_63" data-name="Pfad 63" d="M1048.568,444.677a6.154,6.154,0,1,0-6.168-6.154,6.152,6.152,0,0,0,6.168,6.154Z" transform="translate(363.325 122.225)" fill="#99a88f"/>
    <path id="Pfad_64" data-name="Pfad 64" d="M1106.534,374.247a6.154,6.154,0,1,0-6.154-6.154,6.165,6.165,0,0,0,6.154,6.154Z" transform="translate(388.511 91.631)" fill="#99a88f"/>
    <path id="Pfad_65" data-name="Pfad 65" d="M1140.9,316.711a6.161,6.161,0,1,0-6.168-6.154,6.152,6.152,0,0,0,6.168,6.154Z" transform="translate(403.433 66.631)" fill="#99a88f"/>
    <path id="Pfad_66" data-name="Pfad 66" d="M1120.7,360.8a6.161,6.161,0,1,0-6.154-6.168,6.168,6.168,0,0,0,6.154,6.168Z" transform="translate(394.667 85.784)" fill="#99a88f"/>
    <path id="Pfad_67" data-name="Pfad 67" d="M1135.738,433.951a6.161,6.161,0,1,0-6.168-6.168,6.155,6.155,0,0,0,6.168,6.168Z" transform="translate(401.191 117.559)" fill="#99a88f"/>
    <path id="Pfad_68" data-name="Pfad 68" d="M1051.274,366.381a6.161,6.161,0,1,0-6.154-6.168,6.155,6.155,0,0,0,6.154,6.168Z" transform="translate(364.507 88.208)" fill="#99a88f"/>
    <path id="Pfad_69" data-name="Pfad 69" d="M1032.439,381.228a8.219,8.219,0,1,0-8.219-8.219,8.218,8.218,0,0,0,8.219,8.219Z" transform="translate(355.428 92.869)" fill="#99a88f"/>
    <path id="Pfad_70" data-name="Pfad 70" d="M1079.429,367.058a8.219,8.219,0,1,0-8.219-8.219,8.218,8.218,0,0,0,8.219,8.219Z" transform="translate(375.84 86.713)" fill="#99a88f"/>
    <path id="Pfad_71" data-name="Pfad 71" d="M1111.309,258.118a8.219,8.219,0,1,0-8.219-8.219,8.218,8.218,0,0,0,8.219,8.219Z" transform="translate(389.688 39.391)" fill="#99a88f"/>
    <path id="Pfad_72" data-name="Pfad 72" d="M1099.289,174.658a8.219,8.219,0,1,0-8.219-8.219,8.218,8.218,0,0,0,8.219,8.219Z" transform="translate(384.467 3.136)" fill="#99a88f"/>
    <path id="Pfad_73" data-name="Pfad 73" d="M1133.789,409.208a8.219,8.219,0,1,0-8.219-8.219,8.218,8.218,0,0,0,8.219,8.219Z" transform="translate(399.454 105.023)" fill="#99a88f"/>
    <path id="Pfad_74" data-name="Pfad 74" d="M1036.823,433.231a6.161,6.161,0,1,0-6.154-6.154,6.152,6.152,0,0,0,6.154,6.154Z" transform="translate(358.23 117.247)" fill="#99a88f"/>
    <g id="Gruppe_5" data-name="Gruppe 5" transform="translate(206 151)">
      <g id="Gruppe_4" data-name="Gruppe 4" clip-path="url(#clip-path)">
        <path id="Pfad_75" data-name="Pfad 75" d="M357.232,391.678l59.14,69.41-124.849,104.6-42.716-70.916,108.713-103.09L238.55,533.568l-52.872,52.154m14.258,47.435,48.87-139.064s-50.1,168.211-50.519,169.043S310.356,523.083,310.356,523.083L307.53,626.574,197.871,664.356M357.232,391.133,310.241,522.7l108.2,55.7-61.205-187.26ZM194.586,799.49l119.93-87.068L197.871,804.41l-13.139,20.541,24.6-9.7,157.353-53.546L315.348,713.24,204.856,816.732l86.25-251.75,24.227,147.441,147.04-2.467L307.114,626.589,183.9,806.1l12.723-142.966M463.09,709.956l63.945-3.184,152.031-5.035-82.219-14.373-134.5,22.993L417.376,577.289,595,686.532,417.376,461.906,525.185,706.671l68.593,71.877,47.234-21.774,36.147-55.038L604.88,612.2l-42.917-42.716,34.3,119.1-10.686-157.3L462.358,709.941M416.946,578.092l-50.4,184.219,227.236,16.065L789.371,724.83,744.7,599.048,641,757.176l-46.2,21.559M758.46,803.177,595.829,687.163l96.506,22.692-88.7-98.457-41.683-39.016L357.633,392.166m59.757,69.281L604.048,612l150.31,128.751,87.469-236.976-97.338,95.961m99.8-97.18L641.815,756.5l112.327-17.184,4.432,63.544,30.7-26.178,39.417-56.2,1.635-2.324-40.02,6.369,132.839-75.765-92.4,70.228,151.543-36.964,136.339,83.783-68.578-16.84-78.232,51.538L982.9,682.43l19.508-103.491,13.139-38.6,16.424-42.3L961.326,623.706l53.388-83.166L841.468,503.575l267.084,188.909-93.02-151.128,98.772-24.026-82.348-18.69L1191.5,562.7l-1.234-35.114-75.765-10.27L1166.659,667.9l-164.267-88.775L922.11,649.352l39.216-25.044L865.021,648.75,841.468,505.01l-87.125,234.71,3.5,63.013L585.142,531.7M819.235,776.009,789.873,777.7l-98.557-67.875-13.34-8.1,120.331,13.957,32.03,4.518,141.273,82.148L870.543,708.98l137.616-215.087,99.389,156.478L977.119,706.943l72.523,42,142.65-22.793-74.072,39.016,48.468-97.266,136.554,4.863-44.968,28.96,62.425-98.571-22.592,45.183,43.118-45.183-38.2,69.826,66.527-96.922-26.694,25.059L1192.277,562.5l170.492,103.291-104.725,35.946m235.929,17.241M1117.56,766.04l-9.424-73.541m9.252,73.929-143.224,34.4L893.981,641.707,842.5,506.673M971.7,802.2,790.3,724.314l73.5-75.463L745.206,600.4m13.67,203.368,60.775-28.114,50.3-66.226M594.982,687.163,357.16,392.711m397.413,345.9-61.751-30.925,97.051,18.016m80.656-16.266,23.438-68.779L1106.1,692.284,971.7,801.656M922.311,648.879l56.3,58.408L864.361,648.879m166.676-149.134,27.3-117.936,130.9,145.806,108.827,42.716-105.815-7.186m.029,162.56-85.16-74.775,94.254-111.208,96.721,108.139-105.815,77,52.9-20.641-126.772,61.191m126.757-61.22,116.759-38.413L1398.5,460.228,1298.336,569.285l63.587,96.492ZM1201.6,539.736l112.9-22.907,90.152,21.8,141.89,1.807,45.585-64.791-49.286,24.083,46.818,13.1m-171.281-29.161,128.364,55.454-42.1-85.031-86.264,29.577Zm-120.3,164.711,123.415-93.25L1504.659,454.1l-100.006,85.633-35.544,37.782-48.439,25.46,97.74-119.3-77.213,119.3,57.29-142.708,144.357,40.134-32.03-216.722,14.172,151.127-60.1,5.135-39.489,2.869-26.25,17.457-85.662,56.558M1493.356,163.94l102.875,24.026-7.387,44.767-78.031,50.82L1493.356,163.94,1425.6,442.8l85.016-158.73,80.9,36.964-2.869-42.3L1493.156,164.27l-94.67,296.618,6.168,77.816,16.84,16.424-2.266-71.461L1298.451,646.9M1189.036,527.4l172.887,138.361m56.486-182.1,46.474-43.735-94.742,136.554L1425.409,442.8l-84.2,160.164m124.247-163.033L1594.6,243.62l-89.951,210.468,85.848-118.9-4.1-29.362-32.446,65.71-7.387,168.168,35.932-180.49,7.186,7.8-35.946,4.518,42.515,13.957-8.219,9.037L1524.985,435.6l29.161-64.06M1108.452,692.112l138.3,11.69-133.5-187.375,79.021,45.685-26.135,101.8m382.122-124.046-54.708,179.113,49.7-218.085-180.3,164.926,128.55,50.275" transform="translate(-215.6 -145.379)" fill="none" stroke="#99a88f" stroke-width="1"/>
      </g>
    </g>
  </g>
</svg>
